<?xml version="1.0" encoding="UTF-8"?>
<svg xmlns="http://www.w3.org/2000/svg" width="516" height="92" viewBox="0 0 516 92" role="img" aria-label="Clique Agenda logo">
  <path d="M 472 36 L 470 40 L 470 42 L 468 45 L 468 54 L 469 55 L 470 59 L 474 63 L 478 65 L 487 65 L 492 62 L 494 63 L 494 65 L 506 64 L 507 63 L 507 61 L 503 60 L 502 59 L 502 52 L 503 51 L 504 42 L 505 41 L 506 33 L 507 32 L 507 29 L 506 28 L 504 28 L 503 27 L 499 27 L 498 26 L 487 26 L 486 27 L 484 27 L 480 29 Z M 496 30 L 498 31 L 499 33 L 498 34 L 498 38 L 497 39 L 497 43 L 496 44 L 496 48 L 495 49 L 494 57 L 491 60 L 487 60 L 486 61 L 485 60 L 481 60 L 477 56 L 477 54 L 476 53 L 476 46 L 477 45 L 477 42 L 479 38 L 484 32 L 488 30 Z M 381 29 L 381 32 L 385 32 L 387 34 L 387 36 L 386 37 L 386 41 L 385 42 L 385 46 L 384 47 L 384 50 L 383 51 L 383 55 L 382 56 L 381 64 L 388 64 L 389 63 L 389 58 L 391 54 L 391 50 L 392 49 L 392 45 L 393 44 L 394 35 L 396 33 L 398 33 L 402 31 L 407 31 L 409 32 L 411 35 L 411 37 L 410 38 L 410 43 L 409 44 L 408 52 L 407 53 L 407 57 L 406 58 L 407 64 L 419 64 L 420 63 L 420 61 L 417 61 L 414 59 L 414 55 L 416 51 L 416 47 L 417 46 L 417 42 L 418 41 L 418 32 L 414 27 L 412 26 L 404 26 L 396 30 L 394 26 L 392 26 L 391 27 L 387 27 L 386 28 L 383 28 Z M 374 28 L 370 27 L 369 26 L 360 26 L 359 27 L 357 27 L 353 29 L 348 33 L 348 34 L 345 37 L 343 41 L 343 43 L 342 44 L 342 54 L 343 55 L 343 57 L 347 62 L 353 65 L 365 65 L 366 64 L 368 64 L 374 61 L 374 58 L 372 58 L 368 60 L 356 60 L 351 55 L 351 53 L 350 52 L 351 50 L 357 49 L 358 48 L 361 48 L 362 47 L 365 47 L 373 43 L 377 38 L 377 32 L 376 30 L 374 29 Z M 370 33 L 370 37 L 369 39 L 364 43 L 362 43 L 356 46 L 351 46 L 350 45 L 351 44 L 351 42 L 352 41 L 353 37 L 360 30 L 363 30 L 364 29 L 365 30 L 367 30 Z M 343 27 L 330 27 L 329 26 L 321 26 L 320 27 L 318 27 L 314 29 L 310 33 L 307 39 L 308 45 L 311 49 L 311 50 L 308 53 L 308 56 L 307 57 L 308 58 L 308 60 L 312 63 L 314 63 L 315 64 L 320 64 L 321 65 L 325 65 L 330 68 L 330 73 L 325 78 L 323 78 L 322 79 L 318 79 L 317 80 L 310 79 L 308 78 L 304 74 L 304 70 L 307 67 L 307 66 L 303 65 L 300 68 L 298 72 L 298 76 L 302 81 L 304 82 L 307 82 L 308 83 L 320 83 L 321 82 L 324 82 L 325 81 L 329 80 L 336 74 L 337 70 L 338 69 L 338 65 L 337 63 L 334 60 L 332 60 L 329 58 L 321 58 L 320 57 L 317 57 L 314 55 L 314 52 L 315 51 L 317 52 L 326 52 L 334 48 L 336 46 L 338 42 L 338 34 L 337 33 L 338 32 L 343 32 Z M 326 29 L 330 32 L 331 34 L 331 39 L 328 45 L 326 47 L 322 48 L 321 49 L 320 48 L 318 48 L 316 45 L 316 37 L 317 36 L 317 34 L 321 30 L 323 29 Z M 227 28 L 223 27 L 222 26 L 213 26 L 212 27 L 210 27 L 206 29 L 201 33 L 201 34 L 198 37 L 197 41 L 196 42 L 196 44 L 195 45 L 195 54 L 198 60 L 199 60 L 200 62 L 206 65 L 218 65 L 219 64 L 221 64 L 227 61 L 227 58 L 225 58 L 221 60 L 210 60 L 208 59 L 204 55 L 204 53 L 203 52 L 204 50 L 210 49 L 211 48 L 214 48 L 215 47 L 218 47 L 226 43 L 230 38 L 230 32 Z M 223 33 L 223 37 L 222 39 L 217 43 L 215 43 L 209 46 L 205 46 L 204 47 L 203 46 L 204 44 L 204 41 L 206 39 L 207 36 L 213 30 L 220 30 Z M 151 29 L 151 32 L 156 32 L 157 33 L 157 37 L 156 38 L 156 41 L 155 42 L 155 47 L 153 51 L 153 59 L 157 64 L 159 65 L 167 65 L 175 61 L 177 65 L 181 65 L 182 64 L 189 64 L 190 63 L 190 61 L 188 61 L 184 58 L 184 55 L 185 54 L 185 51 L 186 50 L 186 46 L 187 45 L 187 41 L 188 40 L 188 36 L 189 35 L 189 31 L 190 30 L 190 28 L 189 27 L 184 27 L 182 29 L 182 33 L 181 34 L 181 37 L 180 38 L 180 43 L 178 47 L 177 56 L 175 58 L 171 60 L 163 60 L 161 57 L 161 51 L 162 50 L 162 46 L 163 45 L 163 41 L 164 40 L 164 36 L 165 35 L 165 27 L 164 26 L 162 26 L 161 27 L 157 27 L 156 28 L 153 28 Z M 126 26 L 125 27 L 123 27 L 117 30 L 111 36 L 110 39 L 108 41 L 108 44 L 107 45 L 107 55 L 108 56 L 108 58 L 113 63 L 117 65 L 127 65 L 128 64 L 130 64 L 131 65 L 130 67 L 130 71 L 128 75 L 128 78 L 127 79 L 123 79 L 122 80 L 123 82 L 142 82 L 142 79 L 139 79 L 136 76 L 136 75 L 137 74 L 137 70 L 138 69 L 138 65 L 139 64 L 139 59 L 141 55 L 141 51 L 142 50 L 142 46 L 143 45 L 143 41 L 144 40 L 144 36 L 145 35 L 146 29 L 145 28 L 142 28 L 141 27 L 138 27 L 137 26 Z M 135 30 L 137 32 L 137 38 L 136 39 L 136 42 L 135 43 L 135 48 L 133 52 L 133 56 L 132 57 L 132 59 L 128 61 L 123 61 L 122 60 L 120 60 L 116 56 L 115 54 L 115 46 L 116 45 L 117 39 L 123 32 L 127 30 Z M 100 26 L 97 26 L 96 27 L 93 27 L 92 28 L 89 28 L 87 29 L 87 32 L 92 32 L 93 33 L 93 37 L 92 38 L 92 42 L 91 43 L 90 52 L 89 53 L 89 56 L 88 57 L 88 62 L 89 64 L 102 64 L 102 61 L 99 61 L 96 58 L 96 56 L 97 55 L 97 51 L 98 50 L 98 46 L 99 45 L 99 40 L 101 36 L 101 27 Z M 97 11 L 94 13 L 94 15 L 93 16 L 96 20 L 100 20 L 103 17 L 103 13 L 101 11 Z M 271 9 L 271 12 L 272 13 L 275 13 L 276 15 L 269 25 L 269 26 L 267 28 L 267 29 L 265 31 L 264 34 L 258 42 L 257 45 L 255 47 L 255 49 L 253 51 L 252 54 L 250 56 L 248 60 L 248 64 L 263 64 L 263 61 L 260 61 L 256 59 L 256 55 L 259 49 L 263 44 L 283 44 L 285 46 L 285 48 L 286 49 L 286 53 L 287 54 L 287 58 L 288 60 L 287 61 L 280 61 L 279 63 L 280 64 L 300 64 L 301 63 L 301 61 L 297 58 L 296 56 L 296 53 L 294 49 L 294 45 L 293 44 L 293 41 L 292 40 L 291 31 L 289 27 L 289 23 L 288 22 L 288 19 L 287 18 L 286 10 L 285 9 Z M 278 19 L 280 22 L 280 26 L 281 27 L 281 30 L 282 31 L 283 40 L 282 41 L 267 41 L 265 39 L 267 35 L 273 27 L 274 24 Z M 466 8 L 462 8 L 461 9 L 453 10 L 452 11 L 452 13 L 456 13 L 458 15 L 457 25 L 455 27 L 453 26 L 444 26 L 443 27 L 440 27 L 436 30 L 433 31 L 427 38 L 427 40 L 425 43 L 425 49 L 424 50 L 425 51 L 425 56 L 427 60 L 430 63 L 434 65 L 443 65 L 448 62 L 449 62 L 451 65 L 455 65 L 456 64 L 463 64 L 463 61 L 459 60 L 458 59 L 458 53 L 459 52 L 459 47 L 461 43 L 461 39 L 462 38 L 462 34 L 463 33 L 463 29 L 464 28 L 464 23 L 465 22 L 465 20 L 466 19 L 466 15 L 467 14 L 467 10 Z M 453 30 L 455 32 L 455 35 L 454 36 L 454 39 L 453 40 L 453 44 L 452 45 L 452 49 L 451 50 L 451 54 L 450 55 L 450 57 L 447 60 L 443 60 L 442 61 L 441 60 L 438 60 L 436 59 L 434 57 L 433 53 L 432 52 L 432 47 L 433 46 L 434 40 L 436 38 L 438 34 L 444 30 Z M 82 8 L 78 8 L 77 9 L 74 9 L 73 10 L 70 10 L 68 11 L 68 13 L 72 13 L 75 16 L 74 17 L 74 20 L 73 21 L 73 25 L 72 26 L 72 30 L 71 31 L 70 40 L 69 41 L 68 49 L 67 50 L 67 54 L 66 55 L 66 63 L 67 64 L 79 64 L 79 61 L 77 61 L 74 59 L 74 52 L 76 48 L 76 44 L 77 43 L 77 39 L 78 38 L 79 29 L 80 28 L 81 20 L 82 19 L 82 15 L 83 14 Z M 61 10 L 59 10 L 58 9 L 54 9 L 53 8 L 37 8 L 36 9 L 33 9 L 21 15 L 13 23 L 11 27 L 10 32 L 9 33 L 9 36 L 8 37 L 8 44 L 9 45 L 9 47 L 10 48 L 10 50 L 12 54 L 19 61 L 23 63 L 28 64 L 29 65 L 44 65 L 45 64 L 52 63 L 56 61 L 56 58 L 52 58 L 48 60 L 42 60 L 41 61 L 31 60 L 27 58 L 25 56 L 24 56 L 19 50 L 19 48 L 18 47 L 18 42 L 17 40 L 18 39 L 18 33 L 19 32 L 19 30 L 22 24 L 30 16 L 38 12 L 51 12 L 52 13 L 54 13 L 56 15 L 57 17 L 57 23 L 60 23 L 61 22 L 61 17 L 62 16 L 62 12 Z " fill="#000000" fill-rule="evenodd"/>
</svg>
